<?xml version="1.0" standalone="no"?>
<svg xmlns="http://www.w3.org/2000/svg" version="1.1" xmlns:xlink="http://www.w3.org/1999/xlink" width="512" height="512" x="0" y="0" viewBox="0 0 32 32" style="enable-background:new 0 0 512 512" xml:space="preserve" class=""><g><path d="M15.53 27.09H5.04c-1.18 0-2.14-.96-2.14-2.14V11.727h26.19v3.813a.9.9 0 0 0 1.8 0v-8.5a3.935 3.935 0 0 0-3.931-3.93H5.03A3.934 3.934 0 0 0 1.1 7.04v17.91a3.945 3.945 0 0 0 3.94 3.94h10.49a.9.9 0 0 0 0-1.8zM5.03 4.91h21.93c1.175 0 2.13.956 2.13 2.13v2.887H2.9V7.04c0-1.175.955-2.13 2.13-2.13z" fill="#39d88c" opacity="1" data-original="#000000" class=""/><path d="M6.296 8.275a.864.864 0 1 0 0-1.728.864.864 0 0 0 0 1.728zM9.341 8.275a.864.864 0 1 0 0-1.728.864.864 0 0 0 0 1.728zM12.386 8.275a.864.864 0 1 0 0-1.728.864.864 0 0 0 0 1.728zM30.277 19.293l-6-3.486a2.09 2.09 0 0 0-2.097 0l-6 3.486a1.254 1.254 0 0 0 0 2.165l1.592.925v2.768c0 .732.395 1.415 1.03 1.781l2.504 1.443a3.849 3.849 0 0 0 1.923.513c.664 0 1.329-.171 1.922-.513l2.506-1.444a2.061 2.061 0 0 0 1.028-1.78v-2.768l1.592-.925a1.254 1.254 0 0 0 0-2.165zm-7.192-1.929a.283.283 0 0 1 .287 0h.001l5.185 3.012-5.186 3.012a.286.286 0 0 1-.287 0L17.9 20.376zm3.8 7.787a.256.256 0 0 1-.127.221l-2.505 1.443a2.06 2.06 0 0 1-2.048 0l-2.504-1.443a.256.256 0 0 1-.128-.221V23.43l2.607 1.515a2.09 2.09 0 0 0 2.097 0l2.607-1.515v1.721z" fill="#39d88c" opacity="1" data-original="#000000" class=""/></g></svg>